<svg id="visual" viewBox="0 0 900 600" width="900" height="600" xmlns="http://www.w3.org/2000/svg" xmlns:xlink="http://www.w3.org/1999/xlink" version="1.1"><path d="M0 145L82 193L164 211L245 241L327 175L409 187L491 85L573 241L655 91L736 217L818 265L900 199L900 0L818 0L736 0L655 0L573 0L491 0L409 0L327 0L245 0L164 0L82 0L0 0Z" fill="#26a7f8"></path><path d="M0 373L82 295L164 355L245 415L327 391L409 385L491 307L573 355L655 313L736 385L818 397L900 295L900 197L818 263L736 215L655 89L573 239L491 83L409 185L327 173L245 239L164 209L82 191L0 143Z" fill="#267cbc"></path><path d="M0 469L82 433L164 463L245 481L327 457L409 505L491 409L573 463L655 427L736 439L818 505L900 391L900 293L818 395L736 383L655 311L573 353L491 305L409 383L327 389L245 413L164 353L82 293L0 371Z" fill="#1e5484"></path><path d="M0 559L82 517L164 535L245 565L327 541L409 553L491 535L573 535L655 529L736 559L818 547L900 499L900 389L818 503L736 437L655 425L573 461L491 407L409 503L327 455L245 479L164 461L82 431L0 467Z" fill="#113050"></path><path d="M0 601L82 601L164 601L245 601L327 601L409 601L491 601L573 601L655 601L736 601L818 601L900 601L900 497L818 545L736 557L655 527L573 533L491 533L409 551L327 539L245 563L164 533L82 515L0 557Z" fill="#000d21"></path></svg>